<svg width="43" height="48" viewBox="0 0 43 48" fill="none" xmlns="http://www.w3.org/2000/svg">
<path d="M33.9036 17.1706C31.0361 18.9412 29.2651 21.9765 29.2651 25.349C29.2651 29.1431 31.5422 32.6 35 34.0333C34.3253 36.2255 33.3133 38.249 32.0482 40.1039C30.1928 42.7176 28.253 45.4157 25.3855 45.4157C22.5181 45.4157 21.6747 43.7294 18.3012 43.7294C15.012 43.7294 13.8313 45.5 11.1325 45.5C8.43373 45.5 6.57831 43.0549 4.46988 40.0196C1.68675 35.8039 0.0843373 30.9137 0 25.7706C0 17.4235 5.39759 12.9549 10.7952 12.9549C13.6627 12.9549 16.0241 14.8098 17.7952 14.8098C19.4819 14.8098 22.1807 12.8706 25.3855 12.8706C28.759 12.7863 31.9639 14.3882 33.9036 17.1706ZM23.8675 9.32941C25.3012 7.64314 26.0602 5.53529 26.1446 3.34314C26.1446 3.0902 26.1446 2.75294 26.0602 2.5C23.6145 2.75294 21.3373 3.93333 19.7349 5.78824C18.3012 7.3902 17.4578 9.41373 17.3735 11.6059C17.3735 11.8588 17.3735 12.1118 17.4578 12.3647C17.6265 12.3647 17.8795 12.449 18.0482 12.449C20.3253 12.2804 22.4337 11.1 23.8675 9.32941Z" fill="white"/>
</svg>
