<svg width="18" height="18" viewBox="0 0 18 18" fill="none" xmlns="http://www.w3.org/2000/svg">
<path d="M8.75 13.2212L4.32625 8.79875L5.21125 7.89875L8.125 10.8125V0H9.375V10.8125L12.2875 7.9L13.1737 8.79875L8.75 13.2212ZM2.02 17.5C1.44417 17.5 0.96375 17.3075 0.57875 16.9225C0.19375 16.5375 0.000833333 16.0567 0 15.48V12.4513H1.25V15.48C1.25 15.6725 1.33 15.8492 1.49 16.01C1.65 16.1708 1.82625 16.2508 2.01875 16.25H15.4813C15.6729 16.25 15.8492 16.17 16.01 16.01C16.1708 15.85 16.2508 15.6733 16.25 15.48V12.4513H17.5V15.48C17.5 16.0558 17.3075 16.5363 16.9225 16.9213C16.5375 17.3063 16.0567 17.4992 15.48 17.5H2.02Z" fill="black"/>
</svg>
